<?xml version="1.0" standalone="no"?><svg xmlns="http://www.w3.org/2000/svg" viewBox="0 0 1440 320"><path fill="#0099ff" fill-opacity="1" d="M0,32L20,74.7C40,117,80,203,120,208C160,213,200,139,240,133.3C280,128,320,192,360,181.3C400,171,440,85,480,96C520,107,560,213,600,240C640,267,680,213,720,208C760,203,800,245,840,234.7C880,224,920,160,960,117.3C1000,75,1040,53,1080,53.3C1120,53,1160,75,1200,96C1240,117,1280,139,1320,154.7C1360,171,1400,181,1420,186.7L1440,192L1440,320L1420,320C1400,320,1360,320,1320,320C1280,320,1240,320,1200,320C1160,320,1120,320,1080,320C1040,320,1000,320,960,320C920,320,880,320,840,320C800,320,760,320,720,320C680,320,640,320,600,320C560,320,520,320,480,320C440,320,400,320,360,320C320,320,280,320,240,320C200,320,160,320,120,320C80,320,40,320,20,320L0,320Z"></path></svg>